<svg width="353" height="141" viewBox="0 0 353 141" fill="none" xmlns="http://www.w3.org/2000/svg">
<g clip-path="url(#clip0_315_307)">
<path d="M351.776 73.3018C351.681 71.6793 351.234 70.0964 350.442 68.5846L350.347 68.4066L350.244 68.2324L343.303 56.2813C344.498 54.7181 345.504 53.0165 346.307 51.1842C348.068 47.1557 348.788 42.9134 348.499 38.2081C348.214 33.4831 347.09 29.3358 345.167 25.8929C343.232 22.4183 340.652 19.5611 337.506 17.4163C334.53 15.3861 331.146 13.9892 327.458 13.265C325.048 12.7862 322.527 12.5408 319.967 12.5408C319.124 12.5408 318.261 12.5685 317.403 12.62L302.293 13.5341C298.573 13.7597 295.233 15.2358 292.546 17.8239C287.117 13.7043 280.393 11.6227 272.499 11.6227C266.444 11.6227 261.078 12.8337 256.467 15.2358C254.782 14.0881 252.811 13.4233 250.698 13.3204H250.686H250.654L216.411 11.7533C216.182 11.7414 215.952 11.7375 215.727 11.7375C213.922 11.7375 212.129 12.062 210.396 12.707L210.364 12.7189L210.333 12.7308C208.421 13.455 206.688 14.5314 205.176 15.9322C205.085 16.0154 204.998 16.0985 204.911 16.1855C204.318 15.8452 203.708 15.5207 203.083 15.216C198.56 12.9999 193.443 11.7929 187.879 11.6227C187.42 11.6069 186.961 11.6029 186.506 11.6029C179.651 11.6029 173.688 13.2096 168.705 16.3873C168.413 15.9995 168.092 15.6315 167.748 15.2793C165.607 13.0909 162.754 11.8839 159.703 11.8839C159.556 11.8839 159.41 11.8839 159.263 11.8918L130.153 12.9801C128.119 13.0553 126.188 13.5064 124.415 14.3097C122.69 13.2452 120.636 12.6358 118.384 12.6279L113.105 12.6081H113.085H113.073H113.049C111.031 12.6081 109.041 13.0157 107.133 13.8151L107.106 13.8269L107.078 13.8388C105.198 14.6422 103.512 15.7937 102.06 17.254C100.94 18.3858 99.9902 19.6838 99.2265 21.1322C98.6922 18.8607 97.6 17.2303 96.6384 16.1657C94.5252 13.8269 91.5413 12.5329 88.2369 12.521L82.9579 12.5012H82.8985C78.6167 12.5012 74.7464 14.1871 71.6992 17.3767C68.7629 20.4397 67.1997 24.3772 67.1839 28.7699L67.0296 69.2693C66.06 69.2772 65.2527 69.2495 64.6552 69.2257C56.3447 68.9131 49.8191 65.9966 45.7984 63.6855C32.8579 57.8563 22.7865 58.2006 17.3768 59.087C13.2572 59.7637 7.03234 61.2913 -0.0117188 66.1905C5.15261 68.8775 34.0768 78.6363 41.5008 93.132C45.2919 107.2 26.4312 141 26.4312 141C32.5255 141.036 41.7976 139.935 49.2413 133.746C53.9347 129.844 57.2035 124.502 60.0567 119.84C62.4588 115.918 64.1367 112.452 65.2448 109.951C75.249 89.0955 95.4195 88.961 107.454 86.2779C107.786 86.3096 108.127 86.3294 108.463 86.3294L121.455 86.1434C120.75 87.849 120.394 89.6891 120.394 91.6085V123.774C120.394 126.536 121.423 129.172 123.295 131.194C125.361 133.422 128.147 134.652 131.138 134.652C131.138 134.652 157.249 135.084 158.341 135.084C158.448 135.084 158.555 135.084 158.662 135.08L182.517 134.36C184.353 134.304 186.114 133.782 187.669 132.86L187.986 132.868C189.553 133.798 191.357 134.324 193.217 134.371L199.854 134.53C199.933 134.53 200.028 134.53 200.119 134.53C203.174 134.53 206.039 133.259 208.034 131.035C209.624 129.286 211.959 129.544 213.645 131.376C215.663 133.568 218.536 134.827 221.532 134.827H228.624C230.848 134.827 232.945 134.17 234.69 132.971C234.809 133.022 234.928 133.07 235.042 133.121C236.871 133.877 238.786 134.423 240.741 134.747C242.367 135.024 244.006 135.195 245.605 135.25C245.961 135.262 246.317 135.27 246.673 135.27C248.747 135.27 250.888 135.052 253.04 134.629C254.983 134.241 256.835 133.655 258.577 132.876C260.48 134.443 262.851 135.294 265.36 135.294C265.478 135.294 265.597 135.294 265.72 135.286L272.503 135.064C275.225 134.977 277.726 133.936 279.626 132.12C281.569 133.718 283.983 134.593 286.476 134.593C286.591 134.593 286.705 134.593 286.824 134.589L293.564 134.371C296.571 134.273 299.302 133.018 301.257 130.838C303.117 128.768 304.09 126.041 303.999 123.168L302.847 87.7144C302.843 87.5799 302.836 87.4453 302.824 87.3147L312.076 86.7528C315.182 86.5668 317.968 85.1817 319.951 82.839C320.398 82.3245 320.794 81.7745 321.138 81.1967C323.497 83.9945 326.865 85.5973 330.6 85.5973C330.865 85.5973 331.138 85.5893 331.404 85.5735L332.037 85.5339V85.5656L341.455 84.9957C344.352 84.8216 347.031 83.4959 349.002 81.2719C350.953 79.0756 351.934 76.2461 351.764 73.3097L351.776 73.3018Z" fill="#FA7C26"/>
<g filter="url(#filter0_d_315_307)">
<path fill-rule="evenodd" clip-rule="evenodd" d="M186.656 79.2379C179.849 79.0282 174.566 77.0574 170.795 73.3296C167.023 69.6018 165.136 64.2515 165.108 57.2747C165.1 55.854 165.152 53.5508 165.251 50.3652C165.35 47.1795 165.441 44.7655 165.536 43.3013C165.987 36.5026 168.227 31.3185 172.259 27.749C176.303 24.1795 181.67 22.4936 188.385 22.6994C192.62 22.83 196.395 23.7085 199.707 25.331C203.019 26.9535 205.604 29.233 207.467 32.1693C209.327 35.1057 210.249 38.5446 210.222 42.4663C210.206 42.9372 210.044 43.3251 209.723 43.6298C209.403 43.9305 209.035 44.0809 208.603 44.069L198.468 43.7604C197.804 43.7406 197.317 43.5823 197.012 43.2815C196.707 42.9808 196.454 42.4386 196.237 41.6472C195.651 39.063 194.689 37.2426 193.364 36.1742C192.038 35.1057 190.253 34.5477 188.021 34.4804C182.643 34.3142 179.758 37.5276 179.362 44.1165C179.267 45.5333 179.184 47.7019 179.093 50.6303C179.002 53.5548 178.955 55.7867 178.959 57.3063C178.947 63.9072 181.634 67.2907 187.012 67.453C189.204 67.5202 191.009 67.0533 192.449 66.0481C193.89 65.0469 194.95 63.2978 195.651 60.8007C195.865 60.0211 196.146 59.4987 196.482 59.2177C196.822 58.9368 197.329 58.8101 197.994 58.8299L208.128 59.1386C208.56 59.1505 208.92 59.3246 209.221 59.6451C209.525 59.9657 209.664 60.3614 209.648 60.8363C209.426 64.7541 208.306 68.1297 206.268 70.9473C204.23 73.7649 201.508 75.8821 198.104 77.2988C194.701 78.7156 190.886 79.3527 186.644 79.2221L186.656 79.234V79.2379ZM125.353 31.1088L127.066 77.0337L127.074 77.0218C127.094 77.5442 127.28 77.9993 127.66 78.3792C128.028 78.7591 128.455 78.9451 128.93 78.9253L163.042 77.651C163.565 77.6312 163.992 77.4452 164.34 77.0891C164.681 76.7448 164.843 76.2462 164.819 75.6209L164.53 67.9318C164.479 66.5744 163.83 65.9136 162.595 65.961L141.76 66.7367C141.095 66.7604 140.565 66.519 140.161 66.0125C139.761 65.502 139.548 64.9598 139.528 64.386L139.389 60.6978C139.35 59.653 138.934 58.7231 138.139 57.9158C137.343 57.1085 136.402 56.7207 135.309 56.7642L156.928 55.9569C157.451 55.9371 157.874 55.7194 158.222 55.3158C158.559 54.9122 158.721 54.4214 158.701 53.8476L158.436 46.7798C158.416 46.206 158.214 45.7311 157.85 45.3512C157.482 44.9713 157.035 44.7893 156.513 44.8091L140.953 45.3908C140.24 45.4185 139.686 45.1771 139.314 44.6666C138.942 44.1561 138.74 43.61 138.721 43.0362L138.598 39.7397C138.558 38.695 138.151 37.7452 137.383 36.8746C136.615 36.0079 135.654 35.6003 134.518 35.6439L160.854 34.6624C161.428 34.6427 161.871 34.4329 162.192 34.0609C162.512 33.7364 162.666 33.2774 162.643 32.7036L162.354 24.9353C162.334 24.3615 162.144 23.8866 161.768 23.5067C161.4 23.1268 160.953 22.9448 160.431 22.9645L131.312 24.0528C129.642 24.1161 128.222 24.8008 127.031 26.1344C125.843 27.468 125.281 29.1182 125.353 31.1088ZM77.4808 30.3885L77.3066 76.3134C77.3066 76.8952 77.4728 77.3701 77.8053 77.7341C78.1377 78.1061 78.569 78.2882 79.0914 78.2921L88.8185 78.3277C89.3924 78.3277 89.8435 78.1615 90.1799 77.8212C90.5123 77.4888 90.6864 76.9981 90.6864 76.3768L90.7418 61.3705C90.7418 60.3258 90.4292 59.4275 89.7881 58.6597C89.147 57.892 88.3555 57.4369 87.3979 57.2747C87.7817 57.2747 88.3041 57.2866 88.965 57.3222C89.6258 57.3578 90.4331 57.3697 91.3868 57.3697C93.1874 57.3776 95.2809 57.2826 97.6355 57.0808C99.9901 56.879 102.337 56.4159 104.672 55.6878C104.953 55.577 105.194 55.5295 105.388 55.5295C105.91 55.5295 106.405 55.7234 106.856 56.0875C107.295 56.4595 107.525 57.0372 107.525 57.8208L107.454 76.4401C107.454 77.0218 107.64 77.4967 108.024 77.8608C108.403 78.2367 108.835 78.4188 109.31 78.4188L118.946 78.4544C119.52 78.4544 119.971 78.2882 120.307 77.9478C120.64 77.6194 120.814 77.1247 120.814 76.5034L121.008 25.7624C121.011 24.405 120.39 23.7164 119.156 23.7125L113.876 23.6927C113.113 23.6927 112.357 23.847 111.621 24.1557C110.877 24.4763 110.208 24.9234 109.614 25.5249C109.017 26.1265 108.542 26.8467 108.178 27.6817C107.822 28.5167 107.64 29.4585 107.636 30.5072L107.596 41.2712C107.596 41.8529 107.45 42.3278 107.157 42.6879C106.872 43.0599 106.54 43.3409 106.16 43.5506C104.296 44.4292 102.372 45.094 100.398 45.5293C98.4151 45.9646 95.9497 46.206 93.0014 46.2456C92.669 46.2456 92.2179 46.0715 91.6441 45.7272C91.0703 45.3948 90.7933 44.7774 90.7972 43.883L90.8645 25.6595C90.8684 24.3021 90.2471 23.6136 89.0124 23.6096L83.7334 23.5898C82.0634 23.5819 80.611 24.2309 79.3724 25.5329C78.1219 26.8348 77.5006 28.4534 77.4926 30.3925L77.4808 30.3885ZM252.312 25.0461C251.98 24.6385 251.544 24.4169 251.022 24.3931H251.01L216.767 22.826C216.003 22.7904 215.244 22.9171 214.496 23.1941C213.736 23.483 213.055 23.9024 212.434 24.4802C211.813 25.054 211.306 25.7584 210.906 26.5736C210.515 27.3928 210.293 28.299 210.249 29.2923L210.067 33.2932C210.04 33.8749 210.21 34.3577 210.574 34.7376C210.938 35.1255 211.362 35.3273 211.836 35.351L222.177 35.8259C222.751 35.8536 223.234 36.0752 223.645 36.5184C224.057 36.9617 224.243 37.5434 224.211 38.2755L222.486 75.9533C222.458 76.5351 222.628 76.9862 222.996 77.3147C223.309 77.7025 223.736 77.9003 224.255 77.928L234.172 78.3831C234.694 78.4069 235.133 78.2367 235.481 77.8885C235.877 77.5956 236.091 77.1524 236.115 76.5786L237.761 40.638C237.808 39.5933 237.44 38.6317 236.645 37.7571C235.857 36.8865 234.935 36.4195 233.891 36.372L250.44 37.1279C250.963 37.1516 251.414 36.9814 251.782 36.6372C252.15 36.281 252.352 35.818 252.379 35.2442L252.783 26.451C252.807 25.9286 252.656 25.4577 252.312 25.0501V25.0461ZM273.29 79.2537C266.531 79.2537 261.2 77.4452 257.298 73.8322C253.396 70.2231 251.323 64.9005 251.081 57.8881C251.03 56.4199 251.01 54.1682 251.01 51.1289C251.01 48.0897 251.03 45.8182 251.081 44.2986C251.271 37.3891 253.353 32.0585 257.326 28.3149C261.299 24.5712 266.618 22.7034 273.29 22.7034C279.962 22.7034 285.198 24.5752 289.183 28.3149C293.156 32.0546 295.237 37.3891 295.427 44.2986C295.518 47.3378 295.57 49.6212 295.57 51.1289C295.57 52.6367 295.518 54.9517 295.427 57.8881C295.186 64.9084 293.124 70.2191 289.25 73.8322C285.368 77.4413 280.045 79.2537 273.286 79.2537H273.29ZM273.29 67.4767C275.763 67.4767 277.734 66.6536 279.214 65.0034C280.694 63.3532 281.478 60.8284 281.569 57.4211C281.66 54.3819 281.711 52.2093 281.711 50.9034C281.711 49.5974 281.66 47.4724 281.569 44.536C281.478 41.1367 280.682 38.6 279.214 36.9537C277.734 35.3035 275.763 34.4804 273.29 34.4804C270.817 34.4804 268.763 35.3035 267.295 36.9537C265.826 38.604 265.031 41.1287 264.94 44.536C264.888 46.0042 264.869 48.1253 264.869 50.9034C264.869 53.6814 264.888 55.9015 264.94 57.4211C265.031 60.8323 265.826 63.3571 267.295 65.0034C268.763 66.6536 270.773 67.4767 273.29 67.4767ZM331.633 77.6708L341.685 77.0614V77.093C342.068 77.0693 342.401 76.8873 342.69 76.5588C342.983 76.2303 343.109 75.8583 343.086 75.4349C343.07 75.1737 342.983 74.8888 342.824 74.5841L332.753 57.247C332.599 57.0452 332.512 56.7563 332.519 56.3962C332.519 56.0242 332.698 55.6997 333.066 55.4147C335.491 53.6972 337.264 51.5445 338.396 48.9564C339.528 46.3683 340.011 43.6575 339.809 40.365C339.611 37.0725 338.899 34.3142 337.668 32.11C336.433 29.8978 334.858 28.1487 332.943 26.8427C331.031 25.5368 328.851 24.6425 326.413 24.1636C323.976 23.6769 321.427 23.5186 318.768 23.6808L303.659 24.595C301.992 24.6979 300.584 25.426 299.428 26.7755C298.261 28.1249 297.746 29.7712 297.865 31.7063L300.651 77.6589C300.679 78.1299 300.884 78.5493 301.26 78.9213C301.636 79.2933 302.072 79.4674 302.543 79.4397L312.309 78.8461C312.832 78.8145 313.251 78.6087 313.56 78.2169C313.872 77.8845 314.015 77.4215 313.979 76.8516L313.196 63.9111C313.14 62.9693 312.741 62.0631 311.993 61.1925C311.253 60.3218 310.283 59.9142 309.1 59.9894L318.435 59.4235C319.298 59.3721 319.959 59.7559 320.438 60.5632L328.657 75.803C329.31 77.1247 330.295 77.75 331.633 77.6669V77.6708ZM324.007 36.3047C325.242 37.3574 325.923 38.9601 326.049 41.0971C326.18 43.2459 325.693 44.8566 324.589 45.9527C323.485 47.037 322.013 47.6425 320.153 47.7533L313.948 48.1293C313.326 48.1688 312.8 47.967 312.369 47.5198C311.937 47.0727 311.704 46.5305 311.668 45.9092L311.284 39.5537C311.225 38.5604 310.817 37.6463 310.05 36.7955C309.282 35.9446 308.3 35.5608 307.117 35.632L319.377 34.888C321.233 34.7772 322.776 35.2481 324.007 36.3008V36.3047Z" fill="#FFF5B3"/>
</g>
<g filter="url(#filter1_d_315_307)">
<path fill-rule="evenodd" clip-rule="evenodd" d="M263.068 116.199C262.989 118.431 262.458 120.303 261.469 121.831C260.48 123.354 259.241 124.549 257.749 125.432C256.249 126.314 254.595 126.932 252.791 127.288C250.978 127.648 249.229 127.794 247.531 127.735C246.364 127.695 245.153 127.569 243.903 127.355C242.644 127.149 241.437 126.805 240.266 126.322C239.094 125.839 238.01 125.226 236.977 124.474C235.956 123.722 235.093 122.788 234.409 121.665C233.273 119.943 232.723 118.103 232.751 116.172C232.763 115.839 232.873 115.574 233.079 115.357C233.348 115.143 233.625 115.044 233.886 115.052L240.471 115.285C240.903 115.301 241.243 115.384 241.489 115.542C241.734 115.701 241.979 115.962 242.236 116.334C242.798 117.533 243.574 118.352 244.575 118.803C245.576 119.251 246.653 119.512 247.82 119.551C248.323 119.567 248.889 119.539 249.526 119.472C250.163 119.405 250.761 119.262 251.342 119.045C251.912 118.823 252.407 118.511 252.826 118.079C253.242 117.652 253.467 117.074 253.491 116.342C253.523 115.388 253.198 114.672 252.518 114.193C251.841 113.714 251.148 113.33 250.464 113.053C249.937 112.852 249.292 112.63 248.517 112.381C247.741 112.131 246.843 111.87 245.826 111.569C244.31 111.185 242.846 110.711 241.429 110.145C240.02 109.583 238.766 108.843 237.682 107.929C236.597 107.014 235.742 105.879 235.105 104.517C234.468 103.156 234.187 101.486 234.255 99.5153C234.33 97.4337 234.813 95.6608 235.719 94.2124C236.617 92.7641 237.753 91.5966 239.114 90.7102C240.475 89.8237 241.987 89.2024 243.649 88.8384C245.311 88.4743 246.958 88.32 248.588 88.3793C249.716 88.4189 250.867 88.5693 252.043 88.8344C253.222 89.0956 254.346 89.4795 255.426 90.0018C256.503 90.5123 257.508 91.1534 258.426 91.9211C259.344 92.6889 260.159 93.5911 260.856 94.6438C261.924 96.3336 262.466 97.9838 262.482 99.5944C262.47 99.8873 262.36 100.172 262.15 100.457C261.94 100.671 261.687 100.774 261.394 100.762L254.457 100.516C253.725 100.489 253.171 100.141 252.795 99.4717C252.684 98.9533 252.466 98.5141 252.146 98.1619C251.825 97.7978 251.445 97.5129 250.998 97.2952C250.555 97.0776 250.108 96.9113 249.649 96.8045C249.19 96.6976 248.738 96.6304 248.307 96.6145C247.804 96.5987 247.302 96.6185 246.783 96.6699C246.269 96.7214 245.79 96.8678 245.371 97.0815C244.951 97.3071 244.587 97.6158 244.29 98.0313C243.994 98.4428 243.835 98.981 243.811 99.634C243.772 100.699 244.247 101.553 245.22 102.21C246.194 102.828 248.022 103.496 250.693 104.217C252.28 104.565 253.835 105.004 255.367 105.538C256.898 106.073 258.244 106.777 259.407 107.656C260.575 108.542 261.501 109.662 262.185 111.023C262.87 112.385 263.175 114.106 263.1 116.188L263.06 116.195L263.068 116.199ZM157.708 94.1175L158.677 126.219L158.689 126.239C158.701 126.643 158.832 126.971 159.069 127.213C159.306 127.458 159.615 127.577 159.975 127.569L183.822 126.849C184.155 126.837 184.443 126.71 184.705 126.441C184.97 126.18 185.089 125.847 185.077 125.444L184.914 120.066C184.903 119.662 184.772 119.326 184.511 119.061C184.25 118.795 183.933 118.665 183.573 118.677L169.006 119.116C168.535 119.132 168.155 118.95 167.862 118.598C167.569 118.233 167.419 117.858 167.403 117.454L167.324 114.87C167.3 114.138 167.019 113.481 166.469 112.915C165.919 112.349 165.258 112.076 164.491 112.1L179.612 111.645C180.474 111.617 180.894 111.134 180.866 110.176L180.716 105.242C180.688 104.288 180.241 103.829 179.374 103.853L168.547 104.181C168.056 104.197 167.656 104.015 167.383 103.663C167.102 103.298 166.96 102.923 166.948 102.519L166.877 100.216C166.853 99.4836 166.572 98.8148 166.042 98.2093C165.512 97.5999 164.839 97.311 164.043 97.3348L182.5 96.7768C182.861 96.7649 183.161 96.6264 183.383 96.3692C183.648 96.1397 183.771 95.8231 183.759 95.4234L183.597 89.9939C183.585 89.6338 183.434 89.3053 183.165 89.0204C182.896 88.7355 182.587 88.597 182.255 88.6049L161.899 89.2183C160.731 89.2539 159.73 89.7367 158.891 90.6587C158.052 91.5808 157.656 92.7403 157.696 94.1254L157.708 94.1175ZM131.482 93.5911V125.756C131.482 126.128 131.601 126.449 131.854 126.722C132.108 126.995 132.397 127.134 132.729 127.134H155.844C156.176 127.134 156.469 127.003 156.738 126.75C157.011 126.496 157.142 126.168 157.142 125.764V119.939C157.142 119.535 156.999 119.203 156.738 118.954C156.477 118.704 156.176 118.57 155.844 118.57H142.417C141.954 118.57 141.593 118.348 141.32 117.937C141.047 117.525 140.917 117.161 140.917 116.872V90.2472C140.917 89.8435 140.794 89.523 140.565 89.2618C140.363 89.0085 140.07 88.8779 139.67 88.8779H135.828C135.293 88.8779 134.763 88.9967 134.229 89.2301C133.695 89.4597 133.232 89.7842 132.832 90.1839C132.428 90.5875 132.108 91.0782 131.854 91.6639C131.601 92.2496 131.482 92.8907 131.482 93.5832V93.5911ZM193.807 125.46L194.566 93.3537C194.582 92.6612 194.721 92.0201 194.982 91.4423C195.247 90.8645 195.579 90.3699 195.995 89.9583C196.407 89.5467 196.877 89.2262 197.416 89.0046C197.954 88.7751 198.488 88.6761 199.022 88.6919L219.035 89.1668C219.367 89.1747 219.664 89.333 219.917 89.6298C220.17 89.9266 220.305 90.263 220.297 90.6231L220.158 96.4444C220.151 96.848 220.012 97.1567 219.735 97.3704C219.498 97.6158 219.193 97.7384 218.833 97.7305L200.874 97.3031C201.606 97.319 202.236 97.6276 202.774 98.2252C203.312 98.8227 203.569 99.5311 203.55 100.327L203.439 104.992L215.414 105.277C216.28 105.297 216.7 105.78 216.676 106.737L216.538 112.499C216.526 112.943 216.399 113.271 216.162 113.508C215.924 113.746 215.6 113.849 215.208 113.837L200.487 113.489C201.151 113.504 201.769 113.789 202.339 114.359C202.908 114.925 203.185 115.626 203.166 116.461L202.948 125.681C202.936 126.085 202.81 126.413 202.572 126.659C202.366 126.904 202.062 127.031 201.67 127.019L195.033 126.86C194.673 126.853 194.372 126.714 194.147 126.457C193.921 126.2 193.811 125.867 193.818 125.464H193.807V125.46ZM221.876 93.8246V125.942C221.876 126.346 221.995 126.678 222.228 126.928C222.458 127.181 222.762 127.312 223.123 127.312H230.214C230.606 127.312 230.907 127.193 231.108 126.928C231.338 126.674 231.461 126.346 231.461 125.942V90.4173C231.461 90.0137 231.342 89.6932 231.108 89.432C230.907 89.1787 230.614 89.0481 230.214 89.0481H226.221C225.054 89.0481 224.037 89.4992 223.174 90.3976C222.307 91.2919 221.876 92.4396 221.876 93.8286V93.8246ZM264.686 94.3272L265.731 126.425L265.711 126.445C265.723 126.849 265.858 127.173 266.095 127.418C266.333 127.664 266.641 127.783 267.002 127.771L273.788 127.549C274.18 127.537 274.497 127.415 274.722 127.165C274.948 126.916 275.055 126.58 275.043 126.14L274.702 115.653C274.679 114.949 274.437 114.343 273.966 113.805C273.495 113.279 272.934 112.962 272.265 112.875C272.526 112.895 272.902 112.915 273.365 112.919C273.836 112.935 274.402 112.919 275.067 112.895C276.321 112.855 277.777 112.717 279.42 112.503C281.062 112.29 282.692 111.894 284.303 111.328C284.402 111.296 284.572 111.269 284.806 111.261C285.178 111.249 285.522 111.348 285.842 111.577C286.163 111.799 286.337 112.187 286.353 112.737L286.776 125.745C286.788 126.148 286.931 126.473 287.212 126.718C287.481 126.959 287.785 127.082 288.118 127.07L294.853 126.853C295.245 126.841 295.562 126.718 295.787 126.469C296.009 126.219 296.12 125.883 296.108 125.444L294.956 89.9979C294.944 89.5942 294.81 89.2579 294.553 88.9927C294.291 88.7276 293.975 88.597 293.615 88.6088L289.926 88.7276C289.392 88.7434 288.874 88.874 288.371 89.1312C287.865 89.3884 287.406 89.7248 287.006 90.1403C286.606 90.5559 286.29 91.0584 286.06 91.652C285.827 92.2417 285.728 92.9026 285.751 93.6347L285.997 101.154C286.009 101.557 285.922 101.89 285.728 102.147C285.546 102.404 285.312 102.622 285.055 102.772C283.777 103.437 282.467 103.951 281.09 104.331C279.712 104.707 277.999 104.925 275.937 104.992C275.708 105 275.391 104.901 274.979 104.672C274.572 104.454 274.354 104.027 274.334 103.405L273.919 90.6785C273.907 90.2749 273.773 89.9385 273.515 89.6734C273.254 89.4082 272.938 89.2776 272.577 89.2895L268.889 89.4082C267.722 89.4478 266.725 89.9306 265.889 90.8764C265.055 91.8182 264.659 92.958 264.702 94.3153L264.686 94.3272Z" fill="#FFF5B3"/>
</g>
</g>
<defs>
<filter id="filter0_d_315_307" x="74.5365" y="20.7039" width="275.279" height="66.2576" filterUnits="userSpaceOnUse" color-interpolation-filters="sRGB">
<feFlood flood-opacity="0" result="BackgroundImageFix"/>
<feColorMatrix in="SourceAlpha" type="matrix" values="0 0 0 0 0 0 0 0 0 0 0 0 0 0 0 0 0 0 127 0" result="hardAlpha"/>
<feOffset dx="1.97867" dy="2.77014"/>
<feGaussianBlur stdDeviation="2.3744"/>
<feColorMatrix type="matrix" values="0 0 0 0 0.933333 0 0 0 0 0.282353 0 0 0 0 0.266667 0 0 0 0.21 0"/>
<feBlend mode="normal" in2="BackgroundImageFix" result="effect1_dropShadow_315_307"/>
<feBlend mode="normal" in="SourceGraphic" in2="effect1_dropShadow_315_307" result="shape"/>
</filter>
<filter id="filter1_d_315_307" x="128.712" y="86.3883" width="174.124" height="48.9022" filterUnits="userSpaceOnUse" color-interpolation-filters="sRGB">
<feFlood flood-opacity="0" result="BackgroundImageFix"/>
<feColorMatrix in="SourceAlpha" type="matrix" values="0 0 0 0 0 0 0 0 0 0 0 0 0 0 0 0 0 0 127 0" result="hardAlpha"/>
<feOffset dx="1.97867" dy="2.77014"/>
<feGaussianBlur stdDeviation="2.3744"/>
<feColorMatrix type="matrix" values="0 0 0 0 0.933333 0 0 0 0 0.282353 0 0 0 0 0.266667 0 0 0 0.21 0"/>
<feBlend mode="normal" in2="BackgroundImageFix" result="effect1_dropShadow_315_307"/>
<feBlend mode="normal" in="SourceGraphic" in2="effect1_dropShadow_315_307" result="shape"/>
</filter>
<clipPath id="clip0_315_307">
<rect width="352.856" height="141" fill="white"/>
</clipPath>
</defs>
</svg>
